# xmcd
#
# Track frame offsets:
#	150
#	20633
#	42847
#	63758
#	84511
#	102426
#	126022
#	143559
#	160396
#	183060
#	202181
#	220822
#	237243
#
# Disc length: 3342 seconds
#
# Revision: 2
# Processed by: cddbd v1.5.2PL0 Copyright (c) Steve Scherf et al.
# Submitted via: audiograbber 1.83.01
#
DISCID=af0d0c0d
DTITLE=V/A - אישה של קרח אישה של אש
DYEAR=1900
DGENRE=
TTITLE0=ורד גובר - וכשתמוז יבוא
TTITLE1=ורד גובר - צדדים
TTITLE2=נורית גלרון - בוא אלי
TTITLE3=מומי לוי - נולדנו מחופן אהבה
TTITLE4=מומי לוי - אדם יוצא לו לטיול
TTITLE5=איריס פורטוגלי - אישה של קרח אישה של אש
TTITLE6=איריס פורטוגלי - לך עכשיו
TTITLE7=ענת קדם - חוטים של מציאות
TTITLE8=ענת קדם - ואיך אני
TTITLE9=אילן וייל - אם את פותחת את מעילך
TTITLE10=שרונה נסטוביץ' - אהבה אחרונה
TTITLE11=שרונה נסטוביץ' - אישה באשר היא אישה (מתוך "רשויות")
TTITLE12=סתיו רחמן ויעל גרמן - בואי - שיר מכתב
EXTD=
EXTT0=
EXTT1=
EXTT2=
EXTT3=
EXTT4=
EXTT5=
EXTT6=
EXTT7=
EXTT8=
EXTT9=
EXTT10=
EXTT11=
EXTT12=
PLAYORDER=
